# xmcd CD database file
#
# Track frame offsets:
#	150
#	11051
#	40578
#	68642
#	100630
#	132063
#
# Disc length: 1975 seconds
#
# Revision: 0
# Processed by: cddbd v1.5.2PL0 Copyright (c) Steve Scherf et al.
# Submitted via: CDex 1.70beta2
#
DISCID=3e07b506
DTITLE=Momentum - Six In The Bag
DYEAR=2007
DGENRE=Jazz
TTITLE0=Land of 1000 Dances
TTITLE1=Grover
TTITLE2=Sweet Home Chicago
TTITLE3=Oye Como Va
TTITLE4=Electra Glide
TTITLE5=Mambo Swing
EXTD=YEAR: 2007
EXTT0=
EXTT1=
EXTT2=
EXTT3=
EXTT4=
EXTT5=
PLAYORDER=
